<?xml version="1.0" encoding="utf-8"?>
<!-- Generator: Adobe Illustrator 23.1.1, SVG Export Plug-In . SVG Version: 6.00 Build 0)  -->
<svg version="1.1" id="Layer_1" xmlns="http://www.w3.org/2000/svg" xmlns:xlink="http://www.w3.org/1999/xlink" x="0px" y="0px"
	 viewBox="0 0 19.76 20" style="enable-background:new 0 0 19.76 20;" xml:space="preserve">
<style type="text/css">
	.st0{fill:#F1F2F2;}
</style>
<g>
	<path class="st0" d="M8.78,12.4l9.51-0.98c0.31-0.03,0.56-0.28,0.61-0.59l0.85-6.62c0.02-0.19-0.03-0.38-0.16-0.53
		c-0.12-0.15-0.3-0.23-0.5-0.24L5.53,2.99L4.59,0.75c-0.1-0.23-0.31-0.39-0.56-0.41L0.75,0C0.37-0.03,0.04,0.24,0,0.61
		c-0.04,0.37,0.24,0.71,0.61,0.74l2.88,0.29l4.17,9.97l-0.61,0.68c0,0,0,0-0.01,0.01c-0.29,0.33-1.17,1.35-0.74,2.29
		c0.39,0.87,1.57,0.89,1.7,0.89h10.49c0.38,0,0.68-0.3,0.68-0.68c0-0.38-0.3-0.68-0.68-0.68H8c-0.14,0-0.36-0.05-0.45-0.1
		c0.02-0.09,0.1-0.34,0.52-0.82L8.78,12.4z M6.11,4.37l12.2,0.41l-0.69,5.34l-8.73,0.9L6.11,4.37z"/>
	<path class="st0" d="M17.04,15.92c-1.13,0-2.04,0.92-2.04,2.04S15.91,20,17.04,20c1.13,0,2.04-0.92,2.04-2.04
		S18.16,15.92,17.04,15.92z M17.04,18.64c-0.38,0-0.68-0.31-0.68-0.68s0.31-0.68,0.68-0.68c0.38,0,0.68,0.31,0.68,0.68
		S17.41,18.64,17.04,18.64z"/>
	<path class="st0" d="M8.27,15.92c-1.13,0-2.04,0.92-2.04,2.04S7.15,20,8.27,20c1.13,0,2.04-0.92,2.04-2.04S9.4,15.92,8.27,15.92z
		 M8.27,18.64c-0.38,0-0.68-0.31-0.68-0.68s0.31-0.68,0.68-0.68c0.38,0,0.68,0.31,0.68,0.68S8.65,18.64,8.27,18.64z"/>
</g>
</svg>
