<svg xmlns="http://www.w3.org/2000/svg" x="0" y="0" viewBox="0 0 140 146.42" xml:space="preserve"><path d="M22.42 40.56l-3.38 4.12-.11-.09.21-1.95-11.32-9.26-1.88.58-.11-.09 3.37-4.12.11.09-.19 1.96 6.38 5.22-1.52-10.83-1.75.09-.11-.09 2.91-3.56.11.09-.32 2.59 1.01 7.33 11.16.57 2.1-.99.11.09-3.61 4.4-.11-.09-.19-1.45-9.19-.6.46 3.32 3.89 3.19 1.87-.59.1.07zM22.03 16.82l-.08-.11 4.26-3.2.08.11-.66 1.86 8.78 11.71 1.95-.13.08.11-4.26 3.2-.08-.11.67-1.84-8.78-11.71-1.96.11zM44.11 22.7l-4.35 1.8-.05-.13 1.14-1.78-5.44-13.11-2.63-.41-.05-.13 3.58-1.48 13.85 8.04.93.65-4.7-11.36-2.35-.38-.05-.13 4.58-1.9.05.13-1.35 1.91 6 14.49-.65.27-.02-.04-15.93-9.18 5.07 12.26 2.31.35.06.13zM74.66 7.99c.28 5.48-3.79 8.79-9.14 9.06l-6.96.36-.01-.14 1.58-1.15-.74-14.63L57.7.48l-.01-.14 6.32-.32c6.6-.33 10.38 2.8 10.65 7.97zM61.42 1l.78 15.4 3.34-.17c4.53-.23 7.18-3.24 6.94-7.88S69.76.58 63.71.89L61.42 1zM84.62 18.68l-5.46-1.54.04-.13 1.87-.59 3.97-14.09-1.28-1.5.04-.13 5.92 1.67c4.34 1.22 5.96 3.38 5.15 6.23-.64 2.28-2.7 3.45-5.08 3.42l2.32 7.37 1.91 1.79-.04.13-4.95-1.4.04-.13.95-.61-2.2-7.46-3.05-.86-1.72 6.11 1.62 1.57-.05.15zm2.49-16.15l-2.12 7.52 2.41.68c2.72.77 4.62.05 5.38-2.63.72-2.56-.54-4.13-3.43-4.94l-2.24-.63zM96.89 22.72l1.96-.01 7.97-12.28-.78-1.81.07-.11 10.54 6.84-2.08 3.21-.08-.05-.41-3.77-5.37-3.48-3.89 6 4.81 3.12 2.4-.81.08.05-2.74 4.22-.08-.05-.11-2.71-4.81-3.12-4 6.17 5.52 3.58 3.69-1.21.08.05-2.11 3.25-10.73-6.97.07-.11zM128.19 40.01c-4.27 3.45-9.34 2.1-12.7-2.06l-4.38-5.42.11-.09 1.86.6 11.39-9.2-.18-1.96.11-.09 3.98 4.92c4.14 5.15 3.83 10.05-.19 13.3zm-2.14-14.81l-11.99 9.69 2.1 2.6c2.85 3.52 6.84 3.9 10.45.98 3.61-2.92 4.68-6.77.88-11.48l-1.44-1.79z"/><g><path   d="M9.47 64.38c-.43 2.38-2.6 3.87-4.94 3.37-2.33-.42-3.7-2.62-3.2-4.98.42-2.33 2.53-3.84 4.85-3.35 2.36.43 3.79 2.64 3.29 4.96zm-6.59.87c.43.64 1.07 1.05 1.92 1.22.87.17 1.63.04 2.28-.39.65-.43 1.06-1.06 1.24-1.93.17-.85.03-1.58-.43-2.23-.44-.63-1.09-1.03-1.95-1.2-.86-.17-1.6-.04-2.24.37s-1.04 1.06-1.21 1.9c-.17.87-.04 1.62.39 2.26zM8.23 72.56l-.02 1.24-5.12-.08c-1.25-.02-1.88.88-1.91 2.2-.02 1.4.62 2.26 1.83 2.28l5.12.08-.02 1.25-5.23-.09C.81 79.41-.03 77.73 0 75.9c.03-1.98 1-3.46 2.99-3.42l5.24.08zM.89 86.9l6.8-1.08-.42-2.62 1.15-.18 1.03 6.46-1.15.18-.42-2.61-6.8 1.08-.19-1.23zM10.31 93.05l1.09 3.23c.83 2.46-.26 4.3-2.54 5.07-1.16.39-2.2.37-3.12-.05-.9-.43-1.56-1.24-1.97-2.45l-1.09-3.23 7.63-2.57zm-5.52 5.28c.64 1.9 1.88 2.41 3.66 1.81 1.84-.62 2.45-1.84 1.83-3.67l-.64-1.88-5.49 1.86.64 1.88zM16.29 106.9c1.22 2.08.56 4.62-1.54 5.77-2.04 1.2-4.51.44-5.67-1.68-1.2-2.04-.6-4.56 1.48-5.7 2.07-1.21 4.59-.47 5.73 1.61zm-4.42 4.96c.74.21 1.49.1 2.25-.33.77-.44 1.25-1.03 1.47-1.78s.11-1.5-.33-2.27c-.43-.75-1.01-1.21-1.78-1.41-.75-.19-1.5-.07-2.26.36-.76.43-1.24 1.01-1.45 1.75-.21.73-.1 1.48.33 2.23.45.77 1.03 1.25 1.77 1.45zM23.14 116.63c1.6 1.81 1.44 4.43-.4 5.96-1.77 1.57-4.34 1.3-5.89-.56-1.57-1.77-1.46-4.36.36-5.88 1.79-1.58 4.42-1.34 5.93.48zm-3.38 5.73c.77.06 1.49-.19 2.15-.76.67-.58 1.03-1.26 1.1-2.03.07-.78-.18-1.49-.76-2.17-.56-.65-1.22-1-2.01-1.04-.77-.04-1.49.22-2.15.79-.66.57-1.02 1.23-1.09 1.99-.07.76.19 1.47.75 2.12.57.68 1.24 1.04 2.01 1.1zM27.95 132.34l.01-3.16-1.73-1.39-1.55 1.92-.96-.78 5.05-6.26 2.83 2.29c1.18.95 1.63 2.46.43 3.95-.79.97-1.88 1.27-2.94.93l.04 3.46-1.18-.96zm1.08-8.02l-2.1 2.6 1.69 1.36c.76.62 1.76.6 2.4-.19.68-.84.49-1.77-.3-2.41l-1.69-1.36zM41.57 131.82l-.68.97c-.32-.52-.98-1.12-1.67-1.51-.94-.53-1.7-.52-2.08.14-.19.33-.23.57-.07.87.16.28.21.36.53.66l.1.11.85.89c.86.88 1.25 1.73.66 2.76-.34.6-.86.98-1.57 1.11-.69.14-1.41-.01-2.15-.43-.47-.27-.94-.59-1.37-.96-.42-.37-.72-.69-.9-.97l.66-.94c.19.28.48.6.88.95s.78.64 1.16.86c.88.5 1.7.45 2.07-.19.31-.55.18-.93-.42-1.54l-.94-.95c-.39-.39-.65-.75-.87-1.22-.19-.48-.16-1.03.13-1.53.74-1.3 2.16-1.58 3.75-.67.78.43 1.41.96 1.93 1.59zM53.54 144.47l-.16-1.79-3.91-1.11-1.08 1.44-1.29-.36 5.39-6.84 1.31.37 1.01 8.65-1.27-.36zm-.77-7.13l-2.68 3.33 3.21.91-.53-4.24zM61.55 139.79l-.55 6.05-1.23-.11.74-8.02 1.23.11 4.56 6.58.56-6.1 1.23.11-.74 8.02-1.25-.11-4.55-6.53zM72.59 138.37l3.39-.33c2.58-.25 4.13 1.24 4.36 3.63.12 1.22-.14 2.23-.76 3.02-.62.78-1.56 1.24-2.83 1.36l-3.39.33-.77-8.01zm3.87 6.57c1.99-.19 2.78-1.28 2.6-3.15-.19-1.93-1.23-2.81-3.15-2.62l-1.98.19.56 5.77 1.97-.19zM94.04 133.88l.31 1.14c-.6-.09-1.49.03-2.23.31-1.01.38-1.49.97-1.23 1.68.13.35.29.54.62.61.32.05.41.07.85.02l.15-.01 1.23-.08c1.22-.09 2.13.16 2.54 1.27.24.65.19 1.29-.16 1.91-.34.62-.91 1.08-1.71 1.37-.51.19-1.05.34-1.61.43-.55.09-1 .11-1.32.06l-.29-1.11c.34.03.77.01 1.3-.07s.99-.19 1.4-.34c.94-.35 1.44-1.01 1.18-1.71-.22-.59-.6-.74-1.45-.67l-1.33.11c-.55.05-.99.02-1.49-.12a1.76 1.76 0 01-1.09-1.09c-.52-1.4.18-2.67 1.9-3.3.8-.27 1.61-.41 2.43-.41zM97.83 131.84l1.07-.62 2.56 4.44c.62 1.08 1.72 1.17 2.87.51 1.21-.7 1.62-1.69 1.01-2.74l-2.55-4.44 1.08-.62 2.61 4.53c1.04 1.8.02 3.38-1.56 4.29-1.71.99-3.48.91-4.47-.81l-2.62-4.54zM116.81 128.44l-3.1-.61-1.7 1.43 1.59 1.88-.95.8-5.19-6.15 2.78-2.35c1.16-.98 2.72-1.14 3.96.33.81.96.89 2.09.36 3.06l3.41.62-1.16.99zm-7.67-2.58l2.15 2.55 1.66-1.4c.75-.63.92-1.62.27-2.39-.7-.83-1.64-.82-2.42-.16l-1.66 1.4zM125.08 119.59l-3.16-.07-1.43 1.7 1.89 1.58-.8.95-6.17-5.17 2.34-2.79c.98-1.16 2.49-1.59 3.96-.36.96.8 1.24 1.91.88 2.96l3.47.02-.98 1.18zm-8-1.23l2.56 2.15 1.4-1.66c.63-.75.63-1.75-.14-2.4-.83-.69-1.76-.53-2.42.25l-1.4 1.66zM123.68 107.01c1.17-2.12 3.69-2.84 5.75-1.62 2.07 1.14 2.68 3.65 1.45 5.73-1.14 2.07-3.62 2.84-5.66 1.64-2.09-1.16-2.74-3.71-1.54-5.75zm6.53 1.26c-.2-.74-.68-1.34-1.44-1.77-.77-.44-1.53-.55-2.29-.35-.76.2-1.35.67-1.79 1.44-.43.75-.53 1.49-.3 2.24.22.74.71 1.33 1.47 1.76.76.43 1.5.55 2.24.36.74-.19 1.32-.67 1.75-1.42.45-.77.56-1.51.36-2.26zM127.44 99.76l.4-1.17 4.85 1.65c1.18.4 2.06-.26 2.49-1.51.45-1.32.11-2.34-1.04-2.73l-4.85-1.65.4-1.18 4.95 1.69c1.96.67 2.24 2.52 1.65 4.26-.64 1.87-2.02 2.98-3.9 2.34l-4.95-1.7zM132.87 87.94l6.01.84-.17 1.23-7.97-1.11.17-1.23 6.78-4.25-6.07-.85.17-1.23 7.97 1.11-.17 1.24-6.72 4.25zM131.96 76.84l-.17-3.41c-.13-2.6 1.43-4.07 3.83-4.19 1.23-.06 2.22.24 2.99.9.75.66 1.16 1.62 1.22 2.89l.17 3.41-8.04.4zm6.75-3.57c-.1-2-1.15-2.84-3.03-2.74-1.94.1-2.86 1.1-2.77 3.03l.1 1.99 5.8-.28-.1-2zM130.18 60.51l1.17-.15c-.17.58-.17 1.48 0 2.25.23 1.05.75 1.61 1.5 1.45.37-.08.57-.21.69-.53.09-.31.12-.4.14-.84l.02-.15.09-1.23c.08-1.22.45-2.09 1.61-2.34.68-.15 1.3-.01 1.87.42.57.42.94 1.05 1.12 1.88.12.53.19 1.09.2 1.66.01.56-.03 1-.12 1.32l-1.14.14c.08-.33.12-.76.11-1.29-.01-.53-.05-1.01-.14-1.44-.22-.98-.8-1.56-1.53-1.4-.62.14-.81.49-.86 1.34l-.08 1.33c-.03.55-.12.98-.32 1.46-.23.46-.66.8-1.22.93-1.46.32-2.62-.54-3.01-2.33-.19-.84-.22-1.67-.1-2.48z"/></g><g><path d="M107.79 71.1c-.18-2.58-3.58-5.13-7.91-13.5-1.95-3.77-3.21-4.7-3.79-4.41-1.35.67-1.07 2.91-.92 3.67.14.75.35 1.5.56 2.23.1.37.22.73.35 1.09.12.36.27.71.4 1.06.15.35.29.7.46 1.04.18.33.32.68.52.99.19.32.36.66.57.96l.63.98c.21.33.42.64.61 1.01.18.36.39.73.54 1.09.56 1.21 1.02 2.44 1.39 3.71.07.25.22 1.06.09 1.86-.16 1.01-.34 2.01-.55 3.01-.25 1.28-.54 2.55-.88 3.81-.16.63-.34 1.26-.52 1.88-.2.62-.38 1.25-.61 1.86-.11.31-.22.61-.35.92-.12.3-.23.61-.37.91-.25.6-.55 1.19-.86 1.75-1 2.76-11.77 12.29-11.77 12.29s10.71-14.6 9.14-22.12c-.42-1.99-1.27-2.73-2.39-2.86-1.36-.15-2.38 1.14-2.69 2.51-.77 3.47-1.47 5.76-7.57 12.04-12.38 12.76-9.39 28.48-9.39 28.48 3.68-3.94 26.21-12.61 32.14-22.67 2.64-4.46 3.35-21.01 3.17-23.59z"/><path d="M96.77 73.51c1.12 2.05 1.19 3.58 1.32 5.03.25-.98.48-1.97.69-3.05.21-.99.38-1.96.53-2.93.06-.39-.01-.86-.04-.99a25.2 25.2 0 00-1.29-3.43c-.11-.25-.21-.44-.31-.63l-.21-.4c-.11-.22-.24-.41-.36-.6l-.77-1.2c-.17-.23-.35-.55-.53-.87l-.11-.19c-.12-.18-.26-.46-.4-.74l-.15-.3c-.18-.37-.31-.67-.44-.97l-.29-.73c-.09-.24-.19-.49-.27-.74-.12-.34-.26-.74-.37-1.16-.22-.77-.44-1.57-.6-2.39-.29-1.52-.19-2.86.26-3.91-.74-.68-1.82-.88-2.58.16-1.42 1.96.99 6.08.99 6.08-3.38 1 3.42 11.2 4.93 13.96zM32.21 71.1c.18-2.58 3.58-5.13 7.91-13.5 1.95-3.77 3.21-4.7 3.79-4.41 1.35.67 1.07 2.91.92 3.67-.14.75-.35 1.5-.56 2.23-.1.37-.22.73-.35 1.09-.12.36-.27.71-.4 1.06-.15.35-.29.7-.46 1.04-.18.33-.32.68-.52.99-.19.32-.36.66-.57.96l-.63.98c-.21.33-.42.64-.61 1.01-.18.36-.39.73-.54 1.09-.56 1.21-1.02 2.44-1.39 3.71-.07.25-.22 1.06-.09 1.86.16 1.01.34 2.01.55 3.01.25 1.28.54 2.55.88 3.81.16.63.34 1.26.52 1.88.2.62.38 1.25.61 1.86.11.31.22.61.35.92.12.3.23.61.37.91.25.6.55 1.19.86 1.75 1 2.76 11.77 12.29 11.77 12.29S43.9 84.7 45.47 77.18c.42-1.99 1.27-2.73 2.39-2.86 1.36-.15 2.38 1.14 2.69 2.51.77 3.47 1.47 5.76 7.57 12.04 12.38 12.76 9.39 28.48 9.39 28.48-3.68-3.94-26.21-12.61-32.14-22.67-2.63-4.45-3.34-21-3.16-23.58z"/><path d="M43.23 73.51c-1.12 2.05-1.19 3.58-1.32 5.03-.25-.98-.48-1.97-.69-3.05-.21-.99-.38-1.96-.53-2.93-.06-.39.01-.86.04-.99a25.2 25.2 0 011.29-3.43c.11-.25.21-.44.31-.63l.21-.4c.11-.22.24-.41.36-.6l.77-1.2c.17-.23.35-.55.53-.87l.11-.19c.12-.18.26-.46.4-.74l.15-.3c.18-.37.31-.67.44-.97l.29-.73c.09-.24.19-.49.27-.74.12-.34.26-.74.37-1.16.22-.77.44-1.57.6-2.39.29-1.52.19-2.86-.26-3.91.74-.68 1.82-.88 2.58.16 1.42 1.96-.99 6.08-.99 6.08 3.38 1-3.42 11.2-4.93 13.96z"/><g><path d="M83.1 75.43c.94-3.67.89-7.11-.2-12.12-1.28-5.91.93-8.77 2.3-10.81-4.19 1.64-6.65 6.34-6.16 12.46.36 4.54-.73 6.67-1.58 7.71.66-6.83-2.14-9.36-.53-16.55 1.83-8.19 3.14-12.61-.06-16.41.78 9.34-13.41 11.39-15.31 23.32-1.11-3.29 2.61-8.17 1.37-12.88-1.09 4.05-2.85 5.88-4.56 9.28-4.67 9.29-5.29 17.66 4.88 25 .87.63 3.72 1.85 5.45 2.12-4.73-6.31-5.11-18.02 2.13-28.55-5.37 10.09-3.35 20.49-.83 26.26a41.28 41.28 0 002.75 5.2c.23.36 1.14 1.53 1.99 1.16.55-.24.62-1.25.04-2.29-.6-1.09-1.03-1.96-1.14-2.18 6.06-2.2 8.39-6.5 9.46-10.72z"/></g></g></svg>